<svg width="51" height="51" viewBox="0 0 51 51" fill="none" xmlns="http://www.w3.org/2000/svg" aria-label="Appetizers icon">
<g clip-path="url(#clip0_181_1758)" stroke="#c7a17a" stroke-width="2.25" stroke-linecap="round" stroke-linejoin="round">
  <path d="M7.5 32.4C9.6 40.2 16.8 46 25.5 46C34.2 46 41.4 40.2 43.5 32.4H7.5Z"/>
  <path d="M5.5 32.4H45.5"/>
  <path d="M14.4 37.2H36.6"/>
  <path d="M20.1 25.8C19.2 21.9 17.7 18.2 15.4 14.9"/>
  <path d="M30.9 25.8C31.8 21.9 33.3 18.2 35.6 14.9"/>
  <path d="M15.4 14.9C18.4 15 21.4 16.2 23.8 18.6"/>
  <path d="M35.6 14.9C32.6 15 29.6 16.2 27.2 18.6"/>
  <path d="M19.1 25.9C21.2 24.5 23.4 23.8 25.5 23.8C27.6 23.8 29.8 24.5 31.9 25.9"/>
  <path d="M12.9 30.2C15.1 27.4 19.2 26.9 22 29.1"/>
  <path d="M38.1 30.2C35.9 27.4 31.8 26.9 29 29.1"/>
  <path d="M11.7 19.4C8.8 20.6 7.5 23.9 8.7 26.8C11.6 25.6 12.9 22.3 11.7 19.4Z"/>
  <path d="M39.3 19.4C42.2 20.6 43.5 23.9 42.3 26.8C39.4 25.6 38.1 22.3 39.3 19.4Z"/>
  <circle cx="25.5" cy="29" r="2.15" fill="#c7a17a" stroke="none"/>
  <circle cx="17.2" cy="31.1" r="1.55" fill="#c7a17a" stroke="none"/>
  <circle cx="33.8" cy="31.1" r="1.55" fill="#c7a17a" stroke="none"/>
  <path d="M24.3 10.2C24.3 8.6 25.5 7.3 25.5 5.7C25.5 7.3 26.7 8.6 26.7 10.2C26.7 11.3 25.9 12.1 25.5 12.4C25.1 12.1 24.3 11.3 24.3 10.2Z"/>
</g>
<defs>
<clipPath id="clip0_181_1758">
<rect width="50" height="50" fill="white" transform="translate(0.5 0.5)"/>
</clipPath>
</defs>
</svg>
